# AST/ASF file generated using VICON BodyLanguage
# -----------------------------------------------
:version 1.10
:name VICON
:units
  mass 1.0
  length 0.45
  angle deg
:documentation
   .ast/.asf automatically generated from VICON data using
   VICON BodyBuilder and BodyLanguage model FoxedUp or BRILLIANT.MOD
:root
   order TX TY TZ RX RY RZ
   axis XYZ
   position 0 0 0  
   orientation 0 0 0 
:bonedata
  begin
     id 1 
     name lhipjoint
     direction 0.662698 -0.695252 0.27831 
     length 2.53073 
     axis 0 0 0  XYZ
  end
  begin
     id 2 
     name lfemur
     direction 0.34202 -0.939693 0  
     length 7.16147  
     axis 0 0 20  XYZ
    dof rx ry rz
    limits (-160.0 20.0)
           (-70.0 70.0)
           (-60.0 70.0)
  end
  begin
     id 3 
     name ltibia
     direction 0.34202 -0.939693 0   
     length 7.63967   
     axis 0 0 20   XYZ
    dof rx
    limits (-10.0 170.0)
  end
  begin
     id 4 
     name lfoot
     direction 0.0938457 -0.257721 0.961651   
     length 1.89793   
     axis -90 7.62852e-016 20   XYZ
    dof rx rz
    limits (-45.0 90.0)
           (-70.0 20.0)
  end
  begin
     id 5 
     name ltoes
     direction -0.00116841 -0.0030592 0.999995   
     length 0.955649   
     axis -90 7.62852e-016 20   XYZ
    dof rx
    limits (-90.0 20.0)
  end
  begin
     id 6 
     name rhipjoint
     direction -0.649445 -0.705948 0.282592   
     length 2.49238  
     axis 0 0 0  XYZ 
  end
  begin
     id 7 
     name rfemur
     direction -0.34202 -0.939693 0   
     length 6.90728   
     axis 0 0 -20   XYZ
    dof rx ry rz
    limits (-160.0 20.0)
           (-70.0 70.0)
           (-70.0 60.0)
  end
  begin
     id 8 
     name rtibia
     direction -0.34202 -0.939693 0   
     length 7.72868   
     axis 0 0 -20   XYZ
    dof rx
    limits (-10.0 170.0)
 end
 begin
     id 9 
     name rfoot
     direction -0.0920068 -0.252865 0.963117   
     length 1.97476  
     axis -90 -7.62852e-016 -20   XYZ
    dof rx rz
    limits (-45.0 90.0)
           (-20.0 70.0)
  end
  begin
     id 10 
     name rtoes
     direction 0.000391322 0.00230649 0.999997   
     length 0.992641   
     axis -90 -7.62852e-016 -20   XYZ
    dof rx
    limits (-90.0 20.0)
  end
  begin
     id 11 
     name lowerback
     direction -0.00875327 0.998321 -0.0572635   
     length 2.20024   
     axis 0 0 0   XYZ
    dof rx ry rz
    limits (-20.0 45.0)
           (-30.0 30.0)
           (-30.0 30.0)
  end
  begin
     id 12 
     name upperback
     direction 0.00753931 0.999972 -0.000360425   
     length 2.20538   
     axis 0 0 0   XYZ
    dof rx ry rz
    limits (-20.0 45.0)
           (-30.0 30.0)
           (-30.0 30.0)
  end
  begin
     id 13 
     name thorax
     direction 0.0117767 0.999601 0.0256663   
     length 2.21508   
     axis 0 0 0   XYZ
    dof rx ry rz
    limits (-20.0 45.0)
           (-30.0 30.0)
           (-30.0 30.0)
  end
  begin
     id 14 
     name lowerneck
     direction 0.060228 0.994909 0.0807986   
     length 1.7607   
     axis 0 0 0   XYZ
    dof rx ry rz
    limits (-20.0 45.0)
           (-30.0 30.0)
           (-30.0 30.0)
  end
  begin
     id 15 
     name upperneck
     direction -0.0563647 0.959594 -0.275685   
     length 1.75612   
     axis 0 0 0   XYZ
    dof rx ry rz
    limits (-20.0 45.0)
           (-30.0 30.0)
           (-30.0 30.0)
  end
  begin
     id 16
     name head
     direction -0.0161544 0.99458 -0.102714  
     length 1.79288  
     axis 0 0 0   XYZ
    dof rx ry rz
    limits (-20.0 45.0)
           (-30.0 30.0)
           (-30.0 30.0)
  end
  begin
     id 17 
     name lclavicle
     direction 0.93913 0.332189 -0.087669  
     length 3.52087  
     axis 0 0 0   XYZ
    dof ry rz
    limits (-20.0 10.0)
           (0.0 20.0)
  end
  begin
     id 18 
     name lhumerus
     direction 1 -4.48974e-011 -2.70836e-027   
     length 5.35289   
     axis -180 -30 -90   XYZ
    dof rx ry rz
    limits (-60.0 90.0)
           (-90.0 90.0)
           (-90.0 90.0)
  end
  begin
     id 19
     name lradius
     direction 1 -4.48961e-011 -9.76021e-027   
     length 3.27727   
     axis -180 -30 -90   XYZ
    dof rx
    limits (-10.0 170.0)
  end
  begin
     id 20
     name lwrist
     direction 1 -4.49103e-011 -2.23668e-026   
     length 1.63864   
     axis 1.44924e-014 90 90   XYZ
    dof ry
    limits (-180.0 0.0)
 end
  begin
     id 21 
     name lhand
     direction 1 3.0697e-005 0.000161777   
     length 0.54443   
     axis 2.85318e-014 90 90   XYZ
    dof rx rz
    limits (-90.0 90.0)
           (-45.0 45.0)
  end
  begin
     id 22 
     name lfingers
     direction 1 -4.49027e-011 -8.9447e-026   
     length 0.438912   
     axis 5.70628e-014 90 90   XYZ
    dof rx
    limits (0.0 90.0)
  end
  begin
     id 23
     name lthumb
     direction 0.707058 2.6516e-005 0.707156   
     length 0.630274   
     axis -90 45 -3.53137e-014   XYZ
    dof rx rz
    limits (-45.0 45.0)
           (-45.0 45.0)
  end
  begin
     id 24 
     name rclavicle
     direction -0.95274 0.284984 -0.105215   
     length 3.43401  
     axis 0 0 0   XYZ 
    dof ry rz
    limits (-10.0 20.0)
           (-20.0 0.0)
  end
  begin
     id 25 
     name rhumerus
     direction -0.999999 -0.000575019 -0.00106829  
     length 5.52077   
     axis -180 30 90   XYZ
    dof rx ry rz
    limits (-90.0 60.0)
           (-90.0 90.0)
           (-90.0 90.0)
  end
  begin
     id 26 
     name rradius
     direction -1 -4.4879e-011 -6.35415e-027   
     length 3.32364   
     axis -180 30 90   XYZ
    dof rx
    limits (-10.0 170.0)
  end
  begin
     id 27 
     name rwrist
     direction -1 -4.49048e-011 -9.98542e-027   
     length 1.66182   
     axis 6.32482e-015 -90 -90   XYZ
    dof ry
    limits (-180.0 0.0)
  end
  begin
     id 28
     name rhand
     direction -1 -4.48978e-011 -1.99771e-026   
     length 0.732235   
     axis 1.27479e-014 -90 -90   XYZ
    dof rx rz
    limits (-90.0 90.0)
           (-45.0 45.0)
  end
  begin
     id 29
     name rfingers
     direction -1 -4.49144e-011 -3.99245e-026   
     length 0.590347   
     axis 2.5496e-014 -90 -90   XYZ
    dof rx
    limits (0.0 90.0)
  end
  begin
     id 30
     name rthumb
     direction -0.707107 -6.35121e-011 0.707107   
     length 0.847624   
     axis -90 -45 -2.82974e-014   XYZ
    dof rx rz
    limits (-45.0 45.0)
           (-45.0 45.0)
  end
:hierarchy
  begin
    root lhipjoint rhipjoint lowerback
    lhipjoint lfemur
    lfemur ltibia
    ltibia lfoot
    lfoot ltoes
    rhipjoint rfemur
    rfemur rtibia
    rtibia rfoot
    rfoot rtoes
    lowerback upperback
    upperback thorax
    thorax lowerneck lclavicle rclavicle
    lowerneck upperneck
    upperneck head
    lclavicle lhumerus
    lhumerus lradius
    lradius lwrist
    lwrist lhand lthumb
    lhand lfingers
    rclavicle rhumerus
    rhumerus rradius
    rradius rwrist
    rwrist rhand rthumb
    rhand rfingers
  end

#!OML:ASF G:\Work\Work\Patient Classification 1\Elijah\terrain1\Elijah.ASF
:FULLY-SPECIFIED
:DEGREES
2952
root 10.5045 21.2952 12.1723 368.568 42.8557 -360.3
lowerback 7.18984 0.726124 -3.3694
upperback 1.88855 0.747348 0.35461
thorax -2.12621 0.391618 2.19192
lowerneck -14.2433 4.68427 5.98816
upperneck 38.3523 7.60773 -3.86247
head 16.6111 3.7306 -1.31921
rclavicle 5.89894e-014 1.88845e-015
rhumerus -38.1743 15.0331 -87.3813
rradius 54.3723
rwrist -11.4277
rhand -16.2864 23.4595
rfingers 7.12502
rthumb 9.92384 -6.28661
lclavicle 5.89894e-014 1.88845e-015
lhumerus -55.3609 0.418732 86.5818
lradius 47.1035
lwrist 9.25276
lhand -13.4747 30.5365
lfingers 7.12502
lthumb 12.6356 60.1343
rfemur -36.7837 4.20522 23.7934
rtibia 73.1019
rfoot -19.4869 13.5504
rtoes -11.6813
lfemur -34.2475 -13.2836 -11.716
ltibia 34.3124
lfoot 14.8541 1.33895
ltoes -13.6911
2953
root 10.6196 21.2089 12.2022 369.049 42.2428 -359.62
lowerback 7.07061 0.60381 -3.64829
upperback 1.87376 0.562946 0.103368
thorax -2.06332 0.299686 2.10651
lowerneck -14.148 4.7877 6.21655
upperneck 38.3988 7.71567 -3.92445
head 16.6383 3.7972 -1.37003
rclavicle -2.67862e-014 1.42131e-014
rhumerus -38.3788 14.5289 -87.2247
rradius 54.7454
rwrist -11.6676
rhand -16.6261 23.7414
rfingers 7.12502
rthumb 9.59615 -6.0201
lclavicle -2.67862e-014 1.42131e-014
lhumerus -55.6472 0.0537814 86.5277
lradius 47.393
lwrist 9.60882
lhand -12.7146 29.5181
lfingers 7.12502
lthumb 13.3683 59.0693
rfemur -37.3182 3.98878 22.8413
rtibia 74.8073
rfoot -19.6578 14.1253
rtoes -14.0912
lfemur -33.6986 -13.6991 -12.4065
ltibia 33.5285
lfoot 16.1265 1.36304
ltoes -16.6926
2954
root 10.7247 21.1063 12.2425 369.079 41.348 -359.421
lowerback 6.87616 0.496275 -4.02736
upperback 2.03183 0.407014 0.122574
thorax -1.78394 0.215781 2.35451
lowerneck -14.1383 4.99517 6.33411
upperneck 38.344 8.05102 -4.12327
head 16.6539 3.91754 -1.41702
rclavicle -2.0773e-014 -1.11319e-014
rhumerus -38.276 14.3741 -86.8664
rradius 55.1214
rwrist -11.8452
rhand -16.7091 23.7816
rfingers 7.12502
rthumb 9.51606 -5.98352
lclavicle -2.0773e-014 -1.11319e-014
lhumerus -55.5543 0.375711 86.4133
lradius 47.3844
lwrist 9.74067
lhand -11.7737 29.2185
lfingers 7.12502
lthumb 14.275 58.7078
rfemur -37.8743 4.18507 22.2781
rtibia 76.6067
rfoot -19.3504 15.1421
rtoes -14.2835
lfemur -33.0593 -14.0204 -12.6419
ltibia 32.9508
lfoot 16.704 1.56922
ltoes -19.4122
2955
root 10.815 20.9875 12.297 368.553 40.1892 -359.906
lowerback 6.57189 0.396217 -4.43953
upperback 2.30428 0.275285 0.452909
thorax -1.32609 0.135767 2.94006
lowerneck -14.0924 5.29847 6.29126
upperneck 38.2028 8.59797 -4.38271
head 16.6276 4.09244 -1.42339
rclavicle 8.84095e-014 -1.80894e-014
rhumerus -38.0331 14.8175 -86.5006
rradius 55.3653
rwrist -12.2364
rhand -17.0336 23.9178
rfingers 7.12502
rthumb 9.20288 -5.86134
lclavicle 8.84095e-014 -1.80894e-014
lhumerus -55.2461 1.22056 86.2346
lradius 47.3259
lwrist 9.98485
lhand -10.4392 30.4402
lfingers 7.12502
lthumb 15.5607 59.8342
rfemur -38.4147 4.78914 22.3956
rtibia 78.466
rfoot -18.7546 16.0329
rtoes -13.6146
lfemur -32.2249 -13.7631 -12.3689
ltibia 32.677
lfoot 15.7081 1.31245
ltoes -21.8511
2956
root 10.9303 20.8635 12.3126 369.076 39.446 -359.271
lowerback 6.6099 0.323451 -4.68171
upperback 2.10642 0.150615 0.227707
thorax -1.54085 0.0814798 2.85283
lowerneck -14.064 5.38116 6.24438
upperneck 38.4121 8.71822 -4.28697
head 16.733 4.1455 -1.35236
rclavicle 3.15074e-014 -7.55382e-015
rhumerus -38.481 14.4562 -86.3406
rradius 55.5593
rwrist -12.5288
rhand -17.977 24.2781
rfingers 7.12502
rthumb 8.29252 -5.53912
lclavicle 3.15074e-014 -7.55382e-015
lhumerus -55.3906 0.844472 86.3013
lradius 47.5747
lwrist 10.7392
lhand -10.342 31.8925
lfingers 7.12502
lthumb 15.6542 61.2792
rfemur -39.4288 4.44762 21.332
rtibia 80.5327
rfoot -17.8086 17.6843
rtoes -11.4987
lfemur -31.6689 -13.2171 -13.3485
ltibia 32.818
lfoot 12.5747 -0.00161075
ltoes -23.2646
2957
root 11.0347 20.7294 12.349 369.12 38.6077 -359.163
lowerback 6.59924 0.323037 -4.83072
upperback 2.04738 0.13733 0.158611
thorax -1.59472 0.0769711 2.86619
lowerneck -14.1549 5.47967 6.37792
upperneck 38.5398 8.84318 -4.33653
head 16.8482 4.20256 -1.3722
rclavicle -2.10712e-014 8.34896e-015
rhumerus -38.78 13.7389 -86.1069
rradius 55.8359
rwrist -12.8083
rhand -18.5582 24.2155
rfingers 7.12502
rthumb 7.7316 -5.6232
lclavicle -2.10712e-014 8.34896e-015
lhumerus -55.4828 0.158854 86.5728
lradius 47.8749
lwrist 11.8563
lhand -12.2333 31.8675
lfingers 7.12502
lthumb 13.8322 61.3876
rfemur -40.4393 4.60106 20.779
rtibia 82.6737
rfoot -16.1697 19.2921
rtoes -8.05906
lfemur -30.9364 -12.2076 -13.9307
ltibia 33.2895
lfoot 8.66743 -1.51014
ltoes -20.1794
2958
root 11.1279 20.606 12.3903 369.043 37.9128 -358.973
lowerback 6.77635 0.280221 -5.23217
upperback 2.01778 0.0431032 0.165487
thorax -1.71505 0.0338065 3.10691
lowerneck -13.8965 5.54129 6.48183
upperneck 38.4561 8.9555 -4.47411
head 16.765 4.24806 -1.43851
rclavicle 4.34841e-014 -2.98177e-015
rhumerus -39.0292 12.8378 -85.7132
rradius 56.0852
rwrist -13.1509
rhand -18.1033 23.8053
rfingers 7.12502
rthumb 8.17059 -6.0167
lclavicle 4.34841e-014 -2.98177e-015
lhumerus -55.3739 0.516122 85.5706
lradius 46.1757
lwrist 9.67629
lhand -9.91367 21.7169
lfingers 7.12502
lthumb 16.0668 51.0708
rfemur -41.2468 4.60422 20.2479
rtibia 84.7416
rfoot -14.7691 20.2984
rtoes -7.08099
lfemur -29.9577 -10.7792 -14.8541
ltibia 34.0039
lfoot 5.54153 -3.15556
ltoes -26.4337
2959
root 11.2254 20.4742 12.4142 368.946 37.4483 -358.734
lowerback 7.0067 0.167437 -5.35577
upperback 2.06121 -0.129091 0.0551019
thorax -1.78201 -0.0503602 3.07679
lowerneck -13.7653 5.59155 6.47927
upperneck 38.4673 8.99713 -4.39276
head 16.7357 4.2746 -1.3994
rclavicle 1.26228e-014 -1.78906e-015
rhumerus -39.099 11.9527 -85.3409
rradius 56.1093
rwrist -13.6066
rhand -17.5599 23.5227
rfingers 7.12502
rthumb 8.69502 -6.27821
lclavicle 1.26228e-014 -1.78906e-015
lhumerus -55.2196 0.0563471 85.6008
lradius 46.2495
lwrist 9.86272
lhand -9.76345 23.3586
lfingers 7.12502
lthumb 16.2114 52.7008
rfemur -41.9411 4.26925 19.6474
rtibia 86.7597
rfoot -13.7853 20.9918
rtoes -7.69706
lfemur -29.2554 -9.73796 -15.7434
ltibia 34.8194
lfoot 2.8614 -3.71965
ltoes -27.2666
